<?xml version="1.0" standalone="no"?>
<!DOCTYPE svg PUBLIC "-//W3C//DTD SVG 20010904//EN"
 "http://www.w3.org/TR/2001/REC-SVG-20010904/DTD/svg10.dtd">
<svg version="1.0" xmlns="http://www.w3.org/2000/svg"
 width="500.000000pt" height="500.000000pt" viewBox="0 0 500.000000 500.000000"
 preserveAspectRatio="xMidYMid meet">

<g transform="translate(0.000000,500.000000) scale(0.100000,-0.100000)"
fill="#000000" stroke="none">
<path d="M2015 4311 c-153 -38 -257 -207 -242 -395 7 -87 27 -145 73 -213 45
-65 114 -111 180 -119 l49 -6 -43 22 c-58 30 -126 109 -154 178 -19 48 -23 76
-23 172 0 110 2 119 32 180 36 73 98 139 158 169 41 21 28 26 -30 12z"/>
<path d="M2159 4304 c-68 -20 -142 -91 -180 -172 -44 -91 -52 -217 -21 -318
38 -123 136 -220 233 -230 l44 -5 -36 20 c-19 11 -54 40 -78 66 -171 185 -122
530 89 632 37 18 40 22 20 22 -14 0 -46 -7 -71 -15z"/>
<path d="M2322 4301 c-182 -63 -271 -333 -178 -537 45 -98 153 -185 230 -184
l31 1 -37 20 c-127 67 -206 248 -179 413 20 125 82 223 175 276 59 34 40 39
-42 11z"/>
<path d="M2513 4310 c-157 -37 -266 -236 -233 -429 28 -170 147 -301 271 -301
23 0 22 1 -6 16 -87 45 -143 118 -177 228 -54 180 23 394 171 471 47 24 37 30
-26 15z"/>
<path d="M2683 4310 c-46 -11 -117 -55 -149 -92 -182 -216 -78 -606 170 -635
l41 -5 -42 22 c-100 51 -172 178 -180 315 -11 169 61 314 187 380 46 24 36 30
-27 15z"/>
<path d="M2843 4306 c-85 -28 -161 -93 -203 -176 l-20 -40 325 0 325 0 -21 41
c-31 62 -95 126 -156 156 -66 32 -183 41 -250 19z m225 -37 c24 -10 58 -31 75
-45 33 -28 93 -104 83 -104 -3 0 -131 0 -283 0 -201 0 -277 3 -275 11 5 20 50
74 79 95 99 74 215 89 321 43z"/>
<path d="M2710 4000 c0 -16 14 -27 55 -45 40 -18 55 -30 55 -45 0 -16 -7 -20
-35 -20 -24 0 -35 5 -35 15 0 8 -9 15 -20 15 -13 0 -20 -7 -20 -20 0 -19 5
-21 78 -18 69 3 77 5 77 23 0 15 -16 28 -57 47 -67 32 -77 58 -23 58 19 0 35
-4 35 -10 0 -5 12 -10 26 -10 16 0 24 5 22 13 -3 8 -31 13 -81 15 -72 3 -77 2
-77 -18z"/>
<path d="M2920 3950 l0 -70 63 2 c49 1 53 2 20 5 l-43 4 0 65 c0 57 -2 64 -20
64 -18 0 -20 -7 -20 -70z"/>
<path d="M3093 4013 c26 -4 27 -6 27 -69 0 -57 2 -64 20 -64 18 0 20 7 20 64
l0 65 33 4 c17 2 -4 4 -48 4 -44 0 -68 -2 -52 -4z"/>
<path d="M2620 3805 c0 -40 106 -157 175 -193 44 -24 61 -27 150 -27 92 0 104
2 153 29 61 34 121 96 151 155 l21 41 -325 0 c-179 0 -325 -2 -325 -5z m584
-65 c-29 -44 -68 -76 -134 -111 -61 -32 -183 -33 -251 -2 -54 24 -116 78 -142
122 l-18 31 286 0 285 0 -26 -40z"/>
<path d="M860 3094 c-70 -30 -110 -92 -110 -172 0 -110 107 -147 192 -65 27
25 28 26 28 6 0 -21 24 -53 40 -53 14 0 48 35 54 56 4 13 0 30 -12 44 -15 19
-22 21 -39 11 -21 -11 -21 -10 -16 45 7 70 -14 118 -60 133 -37 13 -34 14 -77
-5z m32 -86 c6 -15 1 -86 -6 -105 -17 -44 -42 24 -32 83 7 33 29 46 38 22z"/>
<path d="M1243 3095 c-41 -18 -74 -70 -71 -112 1 -19 -5 -39 -15 -51 -13 -14
-17 -32 -15 -58 3 -34 7 -40 42 -53 34 -13 44 -13 80 0 34 12 45 12 66 2 40
-21 103 2 98 35 -2 8 3 17 10 19 8 3 12 -6 12 -25 0 -24 5 -30 28 -35 41 -7
174 2 188 14 8 7 14 7 19 -1 4 -6 12 -7 22 -1 10 5 25 4 40 -4 30 -16 168 -12
188 5 9 7 14 20 13 29 -2 9 4 16 12 16 10 0 14 -8 12 -26 -3 -22 2 -27 25 -31
48 -9 204 0 219 13 10 8 17 7 29 -5 13 -12 33 -14 107 -11 49 3 94 7 98 10 5
3 20 1 33 -4 14 -6 38 -6 54 -2 25 7 28 12 28 51 0 24 5 45 10 47 6 1 23 -17
38 -41 39 -62 51 -70 72 -50 12 12 19 14 28 5 15 -15 159 -14 192 1 18 8 29 9
33 1 24 -36 112 -17 112 24 0 14 6 23 15 23 11 0 14 -7 9 -25 -5 -21 -1 -27
22 -36 19 -7 43 -8 69 -2 46 10 45 5 21 143 -18 108 -29 137 -57 145 -18 6
-28 1 -46 -19 -13 -15 -23 -34 -23 -42 0 -17 -79 -158 -85 -152 -2 2 2 22 10
43 26 72 15 134 -27 156 -14 7 -53 11 -98 10 -41 -1 -100 -3 -130 -4 l-55 -2
1 -37 c1 -21 -3 -38 -7 -38 -5 0 -20 18 -35 40 l-26 39 -96 0 c-121 0 -133 -6
-126 -62 6 -45 -24 -162 -41 -162 -20 0 -22 86 -3 123 36 72 5 102 -103 102
-63 0 -80 -3 -88 -17 -5 -10 -6 -24 -1 -34 8 -15 -19 -151 -33 -165 -13 -14
-25 9 -31 62 -16 138 -42 182 -91 150 -13 -8 -29 -32 -35 -52 -14 -43 -75
-148 -96 -165 -11 -9 -14 -7 -14 12 0 44 27 140 45 159 24 27 5 50 -41 50 -29
0 -39 -7 -66 -45 -32 -45 -47 -45 -48 0 -1 35 -16 48 -56 47 -48 -2 -73 -25
-57 -51 9 -14 8 -34 -6 -89 -29 -112 -44 -119 -55 -25 -18 149 -51 200 -102
152 -13 -12 -24 -29 -24 -37 0 -19 -73 -152 -84 -152 -4 0 -6 10 -3 22 3 12 1
30 -4 41 -8 15 -6 24 10 41 24 25 27 55 9 78 -18 23 -87 30 -125 13z m1517
-134 c-18 -72 -33 -101 -46 -88 -9 8 23 147 38 164 23 28 27 -4 8 -76z m-240
57 c0 -26 -24 -120 -35 -138 -5 -8 -11 -8 -17 -2 -10 10 6 112 23 145 13 24
29 21 29 -5z m374 7 c7 -21 -11 -108 -29 -131 -24 -33 -28 -7 -10 70 16 74 27
91 39 61z m-1584 -5 c0 -5 -4 -10 -9 -10 -6 0 -13 5 -16 10 -3 6 1 10 9 10 9
0 16 -4 16 -10z m-75 -121 c4 -6 5 -12 2 -15 -7 -7 -37 7 -37 17 0 13 27 11
35 -2z"/>
<path d="M3368 3103 c-38 -6 -55 -29 -40 -54 16 -26 -12 -155 -41 -187 -14
-15 -17 -26 -11 -32 16 -16 385 -15 395 1 6 11 13 10 35 -1 35 -19 106 -17
138 4 39 25 59 72 52 123 -6 44 -2 50 23 34 9 -6 22 -6 34 1 18 9 19 8 13 -17
-4 -15 -10 -40 -13 -57 -3 -16 -14 -33 -24 -39 -21 -11 -25 -44 -8 -55 18 -11
108 -9 120 3 8 8 19 6 40 -4 44 -22 105 3 94 38 -4 13 -1 19 9 19 11 0 16 -9
16 -29 0 -23 5 -29 28 -33 45 -8 204 0 214 10 7 7 18 6 34 -5 16 -10 34 -13
52 -9 15 4 34 7 42 6 8 0 34 0 58 -1 53 -1 76 16 67 49 -8 34 13 132 36 164
21 31 24 54 8 64 -17 10 -101 6 -113 -6 -5 -5 -11 -38 -12 -73 -1 -68 -23
-145 -39 -137 -5 3 -9 13 -8 23 2 10 -1 26 -7 36 -7 13 -4 29 10 57 38 74 9
104 -101 104 -51 0 -80 -4 -86 -12 -4 -7 -8 -38 -8 -68 -1 -67 -21 -140 -39
-140 -8 0 -16 28 -23 83 -13 95 -28 134 -55 143 -28 8 -42 -8 -87 -99 -23 -46
-54 -98 -71 -117 -28 -32 -31 -34 -43 -18 -11 14 -12 29 -4 70 12 64 11 62 35
49 26 -14 50 5 57 44 11 54 -10 67 -104 67 -62 0 -87 -4 -100 -16 -16 -14 -20
-15 -30 -2 -28 33 -127 22 -160 -18 -13 -16 -15 -15 -26 11 l-11 27 -90 -3
c-99 -3 -124 -14 -105 -49 8 -14 8 -36 -1 -76 -10 -50 -13 -56 -31 -50 -16 5
-27 -1 -44 -22 -15 -19 -26 -25 -32 -19 -13 13 16 132 41 164 15 20 16 27 6
37 -16 14 -54 22 -90 17z m487 -83 c3 -5 -1 -10 -9 -10 -9 0 -16 5 -16 10 0 6
4 10 9 10 6 0 13 -4 16 -10z m-137 -45 c1 -29 -3 -36 -24 -41 -33 -8 -37 -3
-29 40 6 29 12 36 29 36 19 0 23 -6 24 -35z m-88 -90 c0 -3 -9 -5 -20 -5 -11
0 -20 7 -20 15 0 13 4 14 20 5 11 -6 20 -13 20 -15z m158 7 c3 -9 -2 -13 -14
-10 -9 1 -19 9 -22 16 -3 9 2 13 14 10 9 -1 19 -9 22 -16z"/>
<path d="M502 3083 c-6 -10 -6 -25 0 -38 12 -26 -15 -151 -39 -177 -8 -9 -13
-24 -10 -31 7 -19 57 -28 93 -18 27 7 29 11 26 48 -2 40 -1 41 34 48 56 10 94
54 94 108 0 64 -19 77 -113 77 -61 0 -78 -3 -85 -17z m114 -69 c-3 -9 -6 -18
-6 -20 0 -3 -4 -3 -10 1 -11 7 -2 35 12 35 6 0 7 -7 4 -16z"/>
<path d="M654 2895 c-19 -29 -12 -70 12 -79 23 -9 62 19 70 49 13 53 -51 77
-82 30z"/>
<path d="M775 2696 c-17 -7 -44 -29 -62 -49 -89 -102 -61 -247 48 -247 47 0
72 11 118 54 29 27 33 28 27 9 -18 -60 48 -84 87 -32 35 48 -4 101 -56 74 -25
-13 -26 -13 -16 12 13 34 11 107 -3 138 -22 49 -84 67 -143 41z m43 -132 c3
-56 -19 -101 -38 -74 -13 20 -13 86 1 111 17 33 34 16 37 -37z"/>
<path d="M1395 2703 c-11 -3 -25 -9 -32 -15 -8 -6 -19 -6 -32 1 -21 12 -159
15 -185 5 -18 -7 -21 -35 -7 -49 14 -14 -22 -161 -45 -186 -28 -31 -8 -53 50
-57 62 -4 79 10 71 58 -6 37 -6 37 33 43 21 4 51 18 66 32 15 14 29 25 31 25
2 0 1 -26 -2 -58 -5 -55 -4 -60 22 -80 56 -45 166 -19 198 45 8 15 22 61 32
101 18 76 26 90 43 69 13 -16 -23 -166 -44 -182 -9 -6 -14 -20 -12 -31 3 -18
14 -19 148 -21 87 0 150 3 158 9 6 6 12 21 12 34 0 17 6 24 19 24 15 0 19 -7
17 -32 l-1 -33 62 -3 c54 -3 63 0 77 19 l16 23 23 -22 c46 -43 166 -21 197 38
6 11 20 55 31 97 10 42 26 84 34 93 8 9 15 22 15 28 0 19 -39 34 -70 27 -39
-8 -54 -28 -41 -53 7 -13 5 -38 -6 -86 -12 -54 -20 -70 -39 -78 -39 -18 -49 0
-34 64 7 29 21 67 31 84 25 42 24 53 -8 65 -61 23 -138 -15 -115 -58 6 -10 6
-30 0 -52 -6 -20 -13 -56 -17 -81 -3 -25 -11 -45 -16 -45 -6 0 -16 37 -23 83
-14 95 -34 150 -57 158 -29 11 -63 -13 -74 -52 -5 -20 -29 -68 -52 -107 -39
-66 -43 -69 -52 -49 -13 29 -34 28 -59 -3 -40 -51 -48 -23 -22 79 9 33 22 65
30 69 8 4 14 17 14 28 0 29 -45 43 -100 31 -29 -7 -51 -7 -63 0 -22 11 -71 2
-87 -17 -8 -10 -8 -19 0 -34 8 -16 7 -36 -6 -83 -9 -35 -20 -69 -26 -75 -15
-19 -46 -16 -52 5 -7 23 19 120 38 141 42 46 -10 83 -89 64z m-135 -92 c0 -19
-17 -38 -25 -29 -7 7 7 48 16 48 5 0 9 -9 9 -19z"/>
<path d="M2510 2703 c-42 -8 -52 -23 -45 -64 7 -42 -19 -153 -42 -181 -8 -9
-13 -25 -11 -35 3 -16 15 -18 103 -20 55 -1 110 0 121 3 26 5 37 29 24 53 -9
19 -3 61 10 61 4 0 24 -27 44 -60 59 -96 80 -82 115 77 18 79 42 126 57 111
12 -13 -28 -159 -53 -189 -20 -24 -23 -32 -13 -44 18 -22 160 -20 207 2 33 15
36 15 45 0 12 -22 81 -23 101 -2 9 8 13 24 10 35 -4 15 0 20 15 20 16 0 20 -6
18 -32 l-1 -33 192 -1 c209 -2 221 1 209 51 -8 32 19 139 46 183 11 18 17 39
14 47 -7 19 -65 29 -100 15 -21 -8 -37 -7 -61 1 -27 10 -41 10 -72 -2 l-38
-15 -1 -59 c0 -58 -15 -126 -33 -154 -12 -19 -31 -4 -31 25 0 47 -32 179 -47
197 -9 9 -24 17 -33 17 -21 0 -55 -38 -63 -68 -7 -29 -88 -172 -97 -172 -4 0
1 24 11 53 22 63 23 88 5 131 -18 44 -60 58 -151 50 -84 -6 -84 -6 -115 1 -14
4 -38 2 -53 -4 -27 -11 -28 -14 -22 -52 9 -51 -2 -49 -47 11 -35 46 -41 48
-113 40 -11 -1 -33 0 -50 3 -16 3 -41 3 -55 0z m1040 -77 c0 -8 -7 -19 -15
-26 -12 -10 -16 -9 -21 4 -7 18 13 49 27 40 5 -3 9 -11 9 -18z m-940 -13 c0
-37 -26 -133 -39 -146 -7 -7 -14 -7 -20 -1 -10 9 -4 46 20 137 12 44 39 51 39
10z m404 -29 c0 -56 -21 -107 -45 -112 -15 -3 -14 6 4 83 23 93 42 107 41 29z
m506 -75 c0 -17 -20 -49 -30 -49 -11 0 -14 43 -3 53 10 11 33 8 33 -4z"/>
<path d="M3861 2702 c-33 -10 -49 -37 -35 -59 8 -13 7 -35 -4 -81 -13 -60 -15
-63 -28 -43 -19 26 -55 27 -77 3 -25 -28 -22 -87 5 -106 29 -21 97 -20 127 1
22 15 25 15 36 0 14 -20 85 -23 103 -5 7 7 12 22 12 35 0 16 6 23 20 23 18 0
19 -3 10 -21 -19 -35 4 -50 73 -47 69 3 89 21 69 60 -7 13 -19 63 -27 111 -7
49 -21 99 -30 113 -28 43 -76 26 -96 -33 -21 -67 -119 -221 -119 -187 1 30 41
159 54 173 17 19 21 47 8 55 -15 9 -78 14 -101 8z"/>
<path d="M4231 2701 c-42 -11 -48 -35 -19 -70 15 -17 29 -43 32 -58 8 -37 -9
-92 -34 -110 -24 -17 -25 -27 -4 -47 18 -19 95 -22 126 -5 16 9 19 17 14 45
-12 60 9 109 69 161 30 26 55 56 55 65 0 24 -41 33 -83 19 -24 -8 -42 -9 -61
-1 -30 11 -58 12 -95 1z"/>
<path d="M4528 2693 c-9 -10 -19 -29 -23 -43 -12 -43 -96 -180 -117 -191 -12
-6 -18 -19 -16 -32 3 -19 10 -22 50 -25 38 -2 49 1 57 17 6 11 8 27 5 35 -4
12 0 16 16 16 18 0 21 -4 17 -22 -9 -34 10 -48 69 -48 64 0 101 27 75 55 -5 6
-16 53 -26 105 -17 95 -29 129 -49 142 -19 13 -42 9 -58 -9z"/>
<path d="M389 2684 c-10 -13 -10 -20 0 -36 10 -16 9 -34 -5 -96 -9 -42 -25
-86 -35 -97 -13 -15 -15 -25 -8 -37 13 -24 101 -25 123 -2 19 18 19 20 7 43
-13 24 -3 35 45 49 55 16 85 51 91 107 9 72 -9 85 -117 85 -68 0 -91 -4 -101
-16z m131 -63 c0 -17 -12 -41 -21 -41 -10 0 -12 33 -2 43 9 10 23 9 23 -2z"/>
<path d="M577 2500 c-32 -25 -41 -53 -27 -80 13 -25 51 -26 72 -2 27 30 32 62
12 83 -21 24 -25 24 -57 -1z"/>
<path d="M948 2293 c-60 -4 -77 -19 -57 -52 15 -23 -14 -154 -42 -189 -18 -23
-18 -27 -4 -41 21 -21 101 -20 123 3 14 13 14 20 4 36 -16 27 -5 50 25 50 59
0 113 62 113 128 0 37 -40 73 -79 70 -14 -1 -51 -3 -83 -5z m66 -96 c-3 -9
-11 -17 -16 -17 -6 0 -7 7 -4 16 3 9 6 21 6 27 0 8 3 8 10 1 6 -6 8 -18 4 -27z"/>
<path d="M1260 2282 c-78 -39 -120 -154 -87 -234 12 -29 24 -39 56 -49 34 -10
47 -9 86 5 24 10 54 29 65 43 18 23 25 23 21 -1 -4 -19 11 -45 29 -51 47 -15
92 53 64 94 -16 22 -48 28 -59 11 -14 -22 -23 -8 -13 21 6 17 8 53 5 82 -3 39
-11 56 -31 74 -33 28 -87 30 -136 5z m54 -78 c20 -51 -10 -150 -34 -114 -13
19 -13 71 0 104 11 29 25 34 34 10z"/>
<path d="M1641 2286 c-6 -7 -8 -26 -5 -42 7 -38 -21 -151 -47 -187 -34 -48
-21 -57 80 -57 50 0 102 5 116 12 19 9 28 9 33 1 12 -19 57 -25 98 -14 27 8
47 8 69 0 22 -8 38 -8 59 0 26 11 28 15 23 49 -6 33 5 74 16 62 2 -3 19 -27
37 -55 40 -60 49 -66 71 -54 12 6 24 36 35 89 21 97 27 108 48 91 13 -11 19
-11 31 -1 9 7 18 11 21 8 11 -11 -20 -104 -42 -129 -21 -22 -22 -27 -10 -44
11 -15 26 -19 70 -19 31 0 61 5 67 11 8 8 19 7 40 -4 50 -25 116 4 102 45 -3
7 4 12 16 12 17 0 20 -4 15 -29 -6 -28 -5 -30 37 -36 24 -3 58 -2 74 3 18 5
41 5 57 0 19 -7 35 -6 55 4 26 12 28 18 25 61 -5 62 10 60 53 -7 19 -30 40
-58 46 -61 17 -11 47 24 54 63 10 58 16 73 26 67 5 -4 9 -22 9 -41 0 -40 33
-79 75 -90 41 -10 100 12 130 49 14 17 35 43 45 55 26 31 25 38 -5 58 l-25 16
22 18 c22 17 31 80 15 96 -4 4 -35 9 -70 11 -75 4 -111 -14 -159 -83 -18 -25
-34 -40 -36 -34 -3 9 6 27 42 76 16 21 -12 44 -54 44 -49 0 -67 -21 -51 -57
23 -50 -5 -46 -43 7 -35 49 -39 51 -78 48 -48 -4 -70 -27 -51 -57 8 -13 9 -31
2 -62 -22 -101 -30 -119 -47 -119 -15 0 -20 15 -31 87 -17 120 -32 153 -69
153 -32 0 -46 -12 -57 -50 -12 -41 -96 -179 -118 -195 -19 -13 -23 -13 -36 -1
-12 13 -12 24 -1 75 7 34 15 61 17 61 2 0 13 -5 24 -11 16 -8 25 -7 40 7 22
20 26 83 7 102 -16 16 -194 17 -204 1 -4 -8 -9 -8 -17 0 -16 16 -82 13 -96 -3
-8 -9 -10 -28 -5 -50 8 -47 -8 -47 -36 -1 -39 64 -41 65 -156 62 -90 -2 -108
-5 -119 -21 -13 -18 -15 -18 -41 3 -22 17 -40 21 -104 21 -53 0 -81 -4 -89
-14z m235 -50 c7 -18 -14 -126 -25 -126 -3 0 -11 13 -17 28 -9 22 -8 33 2 47
8 10 14 29 14 42 0 25 17 31 26 9z m144 -17 c0 -30 -30 -142 -42 -156 -18 -22
-30 -2 -23 36 13 79 36 141 50 141 9 0 15 -9 15 -21z m1188 -19 l22 -29 -35
-7 c-20 -3 -42 -16 -50 -27 -13 -18 -13 -23 1 -38 10 -11 12 -19 5 -23 -13 -9
-31 26 -31 61 0 33 34 93 53 93 7 0 23 -13 35 -30z m-1482 -127 c-11 -11 -19
6 -11 24 8 17 8 17 12 0 3 -10 2 -21 -1 -24z"/>
<path d="M3407 2289 c-15 -9 -17 -18 -12 -50 8 -45 -16 -140 -46 -182 -12 -16
-18 -35 -15 -42 8 -22 52 -29 85 -12 20 10 33 11 40 4 7 -7 15 -6 26 3 14 12
18 11 25 0 6 -10 34 -15 97 -16 107 -2 133 6 133 41 0 16 6 25 15 25 11 0 15
-8 13 -27 -3 -23 2 -28 31 -37 23 -7 47 -6 77 2 32 9 56 9 91 1 100 -22 179
39 171 132 -4 34 0 52 14 69 40 49 13 92 -61 98 -88 6 -141 -42 -141 -128 0
-21 -5 -42 -11 -45 -5 -4 -15 -19 -21 -33 l-11 -27 -8 30 c-4 17 -12 59 -19
95 -14 78 -32 110 -64 110 -25 0 -56 -28 -56 -51 0 -19 -104 -192 -118 -197
-7 -2 -12 6 -12 18 0 34 30 142 47 171 22 36 11 59 -27 59 -44 0 -65 -14 -91
-60 -13 -22 -26 -40 -30 -40 -4 0 -10 17 -14 38 -4 20 -11 43 -17 50 -13 15
-66 15 -91 1z m687 -74 c3 -9 0 -15 -9 -15 -16 0 -27 14 -18 24 10 10 21 7 27
-9z m-84 -125 c10 -6 12 -12 4 -20 -7 -7 -16 -5 -29 10 -14 15 -15 20 -4 20 8
0 21 -5 29 -10z"/>
<path d="M1068 2093 c-25 -29 -28 -61 -8 -86 18 -21 20 -21 47 -7 24 14 28 22
28 60 0 41 -2 45 -26 48 -15 2 -31 -4 -41 -15z"/>
<path d="M2423 1536 c-92 -30 -176 -107 -221 -204 -24 -50 -27 -69 -27 -162 0
-99 2 -110 33 -172 37 -75 104 -142 179 -179 41 -20 63 -24 148 -24 90 0 105
3 153 28 75 39 138 106 175 185 29 61 32 76 32 162 0 86 -3 101 -31 161 -41
87 -89 138 -166 179 -55 30 -74 34 -148 37 -52 2 -101 -2 -127 -11z m266 -46
c257 -137 247 -525 -18 -648 -80 -38 -192 -38 -272 -1 -79 37 -133 90 -171
167 -30 61 -33 75 -33 162 0 82 4 103 26 151 67 142 179 212 329 206 63 -3 86
-9 139 -37z"/>
<path d="M2512 1270 c-19 -35 -20 -39 -5 -33 22 7 52 43 53 61 0 25 -26 10
-48 -28z"/>
<path d="M2650 1291 c-13 -25 -13 -71 0 -71 6 0 10 18 10 39 0 22 5 42 13 44
9 4 9 6 0 6 -7 1 -17 -8 -23 -18z"/>
<path d="M2401 1276 c-5 -12 -17 -63 -26 -112 -10 -49 -24 -99 -31 -111 -16
-26 0 -43 21 -22 11 11 65 228 65 262 0 17 -21 5 -29 -17z"/>
<path d="M2702 1252 c-1 -20 -10 -42 -19 -49 -13 -10 -14 -15 -3 -28 9 -10 11
-32 7 -66 -7 -56 -21 -81 -42 -73 -7 3 -16 1 -20 -5 -10 -18 42 -13 60 6 29
29 37 64 25 110 -10 35 -10 45 4 64 19 28 21 79 4 79 -8 0 -14 -16 -16 -38z"/>
<path d="M2554 1188 c-1 -61 -17 -133 -31 -133 -6 0 -15 -3 -19 -7 -4 -5 -16
-8 -26 -8 -11 0 -16 -4 -13 -10 12 -19 52 -10 79 19 16 16 26 33 23 38 -3 5 1
22 9 37 19 37 18 59 -4 86 -17 22 -18 22 -18 -22z"/>
<path d="M2465 1190 c-12 -19 -8 -82 7 -96 11 -11 13 -7 14 29 0 23 2 48 5 56
5 17 -17 26 -26 11z"/>
<path d="M2620 1093 c0 -28 3 -34 10 -23 13 20 13 60 0 60 -5 0 -10 -17 -10
-37z"/>
</g>
</svg>
